<?xml version="1.0" encoding="UTF-8" standalone="no"?>
<!-- Created with Inkscape (http://www.inkscape.org/) -->

<svg
   width="148.95207mm"
   height="148.93555mm"
   viewBox="0 0 148.95207 148.93555"
   version="1.1"
   id="svg1"
   inkscape:version="1.3.2 (091e20ef0f, 2023-11-25)"
   sodipodi:docname="logo.svg"
   xml:space="preserve"
   xmlns:inkscape="http://www.inkscape.org/namespaces/inkscape"
   xmlns:sodipodi="http://sodipodi.sourceforge.net/DTD/sodipodi-0.dtd"
   xmlns="http://www.w3.org/2000/svg"
   xmlns:svg="http://www.w3.org/2000/svg"><sodipodi:namedview
     id="namedview1"
     pagecolor="#ffffff"
     bordercolor="#000000"
     borderopacity="0.25"
     inkscape:showpageshadow="2"
     inkscape:pageopacity="0.0"
     inkscape:pagecheckerboard="0"
     inkscape:deskcolor="#d1d1d1"
     inkscape:document-units="mm"
     showgrid="true"
     inkscape:zoom="2.0485766"
     inkscape:cx="451.53303"
     inkscape:cy="434.69207"
     inkscape:window-width="3804"
     inkscape:window-height="2292"
     inkscape:window-x="18"
     inkscape:window-y="18"
     inkscape:window-maximized="1"
     inkscape:current-layer="layer8"><inkscape:grid
       id="grid1"
       units="mm"
       originx="-24.999997"
       originy="-24.999943"
       spacingx="4"
       spacingy="4"
       empcolor="#0099e5"
       empopacity="0.30196078"
       color="#0099e5"
       opacity="0.14901961"
       empspacing="5"
       dotted="false"
       gridanglex="30"
       gridanglez="30"
       visible="true" /><inkscape:page
       x="0"
       y="0"
       width="148.95207"
       height="148.93555"
       id="page10"
       margin="0"
       bleed="0" /><inkscape:page
       x="195"
       y="-24.999943"
       width="705.55554"
       height="705.5556"
       id="page11"
       margin="0"
       bleed="0" /><inkscape:page
       x="910.55554"
       y="-24.999943"
       width="705.55554"
       height="705.5556"
       id="page21"
       margin="0"
       bleed="0" /><inkscape:page
       x="1626.1111"
       y="-24.999943"
       width="1059.3916"
       height="1059.3917"
       id="page27"
       margin="0"
       bleed="0" /></sodipodi:namedview><defs
     id="defs1"><rect
       x="288.80963"
       y="298.18576"
       width="171.39555"
       height="160.20833"
       id="rect8" /><clipPath
       clipPathUnits="userSpaceOnUse"
       id="clipPath12"><g
         inkscape:label="Clip"
         id="use12"><g
           id="g22"
           transform="matrix(0.41992983,0,0,0.41992983,-1012.8453,-188.64158)"><path
             id="path22"
             d="m 13305.8,9977.6 -485.1,-176.7 c -9.7,-149.8 -31.1,-296.5 -63.3,-439.1 l 422.2,-283.3 c -63.8,-223.8 -150.6,-437.9 -257.6,-639.6 l -512.4,69.1 c -72.4,-117.9 -153.3,-230 -241.7,-335.5 l 242.8,-448.1 c -160.5,-171 -338.9,-324.8 -532.3,-458.6 l -420.5,298.5 c -111.7,-67.4 -228.4,-127.3 -349.5,-178.9 l 6.7,-511.9 c -220.1,-78.9 -450.9,-135.1 -689.8,-165.8 l -233,458.5 c -63.6,-4.3 -127.7,-6.5 -192.3,-6.5 -64.63,0 -128.75,2.2 -192.29,6.5 l -233,-458.5 c -238.87,30.7 -469.75,86.9 -689.85,165.8 l 6.74,511.9 c -121.08,51.6 -237.82,111.5 -349.53,178.9 l -420.5,-298.5 c -193.39,133.8 -371.8,287.6 -532.26,458.6 l 242.76,448.1 c -88.42,105.5 -169.26,217.6 -241.71,335.5 l -512.32,-69.1 c -107.05,201.7 -193.85,415.8 -257.63,639.6 l 422.18,283.3 c -32.16,142.6 -53.57,289.3 -63.28,439.1 l -485.09,176.7 c -0.01,2.9 -0.06,5.9 -0.06,8.8 0,226.8 22.86,448.2 66.35,662.2 l 504.47,54.5 c 40.55,155.2 93.92,305.1 158.96,448.7 l -346.55,380.9 c 103.59,195.4 226.22,379.2 365.39,548.9 l 472.39,-186.3 c 113.18,123.5 237.18,237 370.53,338.8 l -129.37,496.7 c 178.71,120.3 369.83,223.6 571.01,307.6 l 332.45,-385.4 c 161.16,56.8 329.04,99.4 502.1,126.4 l 115.66,497.3 c 106.1,10.2 213.66,15.6 322.45,15.6 108.8,0 216.3,-5.4 322.4,-15.6 l 115.7,-497.3 c 173.1,-27 340.9,-69.6 502.1,-126.4 l 332.5,385.4 c 201.1,-84 392.3,-187.3 571,-307.6 l -129.4,-496.7 c 133.3,-101.8 257.3,-215.3 370.5,-338.8 l 472.4,186.3 c 139.2,-169.7 261.8,-353.5 365.4,-548.9 l -346.5,-380.9 c 65,-143.6 118.4,-293.5 158.9,-448.7 l 504.5,-54.5 c 43.5,-214 66.3,-435.4 66.3,-662.2 0,-2.9 0,-5.9 0,-8.8 z m 1524.3,-10.3 c 0,4.3 0.1,8.6 0.1,12.9 0,331.3 -33.4,654.9 -97,967.4 l -737,79.7 c -59.3,226.7 -137.3,445.8 -232.3,655.6 l 506.4,556.6 c -151.4,285.5 -330.6,554 -533.9,801.9 l -690.2,-272.2 c -165.4,180.5 -346.6,346.3 -541.4,495.1 l 189,725.7 c -261.1,175.8 -540.4,326.7 -834.3,449.4 l -485.7,-563.1 c -235.5,83.1 -480.8,145.3 -733.7,184.6 l -169,726.7 c -155,15 -312.1,22.8 -471.1,22.8 -158.96,0 -316.1,-7.8 -471.13,-22.8 l -168.98,-726.7 c -252.87,-39.3 -498.16,-101.5 -733.64,-184.6 l -485.74,563.1 c -293.95,-122.7 -573.19,-273.6 -834.31,-449.4 l 189.02,-725.7 c -194.83,-148.8 -376.01,-314.6 -541.38,-495.1 l -690.22,272.2 c -203.34,-247.9 -382.51,-516.4 -533.87,-801.9 l 506.35,-556.6 c -95.04,-209.8 -173.01,-428.9 -232.26,-655.6 l -737.09,-79.7 c -63.55,-312.5 -96.94,-636.1 -96.94,-967.4 0,-4.3 0.07,-8.6 0.08,-12.9 l 708.77,-258.2 c 14.19,-218.9 45.48,-433.2 92.46,-641.5 l -616.85,-413.9 c 93.2,-327.1 220.01,-639.9 376.43,-934.6 l 748.55,100.9 c 105.86,-172.2 223.98,-336 353.16,-490.2 l -354.69,-654.7 c 234.45,-249.8 495.13,-474.6 777.7,-670.1 l 614.39,436.1 c 163.21,-98.4 333.78,-185.9 510.71,-261.4 l -9.85,-747.9 c 321.59,-115.2 658.92,-197.3 1007.94,-242.2 l 340.43,669.9 c 92.85,-6.2 186.53,-9.4 280.96,-9.4 94.4,0 188.1,3.2 281,9.4 l 340.4,-669.9 c 349,44.9 686.3,127 1007.9,242.2 l -9.8,747.9 c 176.9,75.5 347.5,163 510.7,261.4 l 614.4,-436.1 c 282.5,195.5 543.2,420.3 777.7,670.1 l -354.7,654.7 c 129.2,154.2 247.3,318 353.1,490.2 l 748.6,-100.9 c 156.4,294.7 283.2,607.5 376.4,934.6 l -616.8,413.9 c 47,208.3 78.3,422.6 92.4,641.5 l 708.8,258.2"
             style="fill:#211d1d;fill-opacity:1;fill-rule:nonzero;stroke:none"
             transform="matrix(0.13333333,0,0,-0.13333333,0,2666.6667)" /></g></g></clipPath></defs><g
     inkscape:groupmode="layer"
     id="layer2"
     inkscape:label="T1"
     transform="translate(-24.999997,-24.999942)"><text
       xml:space="preserve"
       style="font-style:normal;font-variant:normal;font-weight:normal;font-stretch:normal;font-size:143.791px;font-family:'Fira Code';-inkscape-font-specification:'Fira Code';fill:#ff0000;stroke-width:0.748904"
       x="50.233273"
       y="138.52573"
       id="text10"><tspan
         sodipodi:role="line"
         id="tspan10"
         style="font-style:normal;font-variant:normal;font-weight:normal;font-stretch:normal;font-family:'Fira Code';-inkscape-font-specification:'Fira Code';fill:#000000;stroke-width:0.748904"
         x="50.233273"
         y="138.52573">c</tspan></text><path
       id="path1-3"
       style="fill:#ff0000;stroke-width:0.264583"
       inkscape:label="path1-3"
       inkscape:transform-center-x="-24.204223"
       inkscape:transform-center-y="-3.3704371e-05"
       d="m 94.64784,125.20958 v 8.28452 l 7.10592,-4.10258 c -0.0914,-0.16189 -0.18676,-0.32147 -0.28895,-0.47685 l -1.41047,0.15621 c -0.320335,-0.40096 -0.683799,-0.76544 -1.08382,-1.08685 l 0.159808,-1.40995 c -0.272528,-0.18038 -0.555497,-0.34416 -0.847397,-0.49084 l -1.143431,0.84031 c -0.477917,-0.18704 -0.974901,-0.32098 -1.482173,-0.39926 l -0.566491,-1.3009 c -0.147533,-0.009 -0.295258,-0.0128 -0.442996,-0.0138 z"
       transform="matrix(9.0510381,0,0,9.0510381,-756.66214,-1108.2632)" /><path
       id="path7-6"
       style="fill:#d45500;stroke-width:0.264583"
       inkscape:transform-center-x="16.400925"
       inkscape:transform-center-y="-4.2635089e-06"
       d="m 89.358666,101.94918 c -0.433192,-6.1e-4 -0.866389,0.0118 -1.29906,0.037 l -1.511859,3.44689 c -1.346195,0.2042 -2.665674,0.55574 -3.934741,1.04885 l -3.027505,-2.23765 c -0.775467,0.38685 -1.527467,0.81964 -2.251583,1.29619 l 0.414088,3.74117 c -1.063669,0.84978 -2.030683,1.81398 -2.883316,2.87514 l -3.740118,-0.42378 c -0.254923,0.3853 -0.495469,0.77969 -0.725335,1.18017 l 19.083019,11.01754 v -21.97754 c -0.04122,-2.9e-4 -0.08237,-0.004 -0.12359,-0.004 z"
       transform="matrix(3.4119193,0,0,3.4119193,-205.30769,-322.84236)" /><path
       id="path3"
       style="fill:#d45500;fill-opacity:1;fill-rule:nonzero;stroke:none;stroke-width:0.00874255"
       d="m 34.889343,62.40756 c -0.687333,1.197464 -1.348601,2.410257 -1.968355,3.644222 l 7.60522,10.348206 c -1.693437,4.326673 -2.905205,8.82477 -3.613732,13.415202 L 25.138,94.943559 c -0.179809,2.950834 -0.183874,5.911291 -0.0124,8.863021 l 11.761039,5.15938 c 0.697019,4.59215 1.896016,9.09499 3.578077,13.42502 l -7.633643,10.32805 c 0.781363,1.56698 1.634702,3.09527 2.524394,4.6023 L 99.999581,99.999064 Z" /><path
       id="path7"
       style="fill:#800000;stroke-width:0.264583"
       inkscape:transform-center-x="16.400925"
       inkscape:transform-center-y="-4.2635089e-06"
       d="M 89.482223,90.627152 70.535971,101.56579 c 0.179655,0.30431 0.361691,0.60732 0.556004,0.90269 l 3.741329,-0.41424 c 0.849749,1.06367 1.814191,2.0306 2.875441,2.88347 l -0.424236,3.73997 c 0.722852,0.47831 1.473816,0.91326 2.248251,1.30209 l 3.033109,-2.22902 c 1.268028,0.49604 2.586428,0.85139 3.931864,1.05915 l 1.50262,3.45083 c 0.493588,0.0303 0.987747,0.0389 1.48187,0.0354 z"
       transform="matrix(3.4119193,0,0,3.4119193,-205.30706,-209.21243)" /><path
       id="path1"
       style="fill:#800000;stroke-width:0.264583"
       inkscape:transform-center-x="-24.204223"
       inkscape:transform-center-y="-3.3704371e-05"
       d="m 94.647823,114.96675 v 8.16857 c 0.140362,-9.8e-4 0.280707,-0.004 0.4209,-0.0119 l 0.570031,-1.29947 c 0.50731,-0.0768 1.00479,-0.20946 1.483201,-0.39526 l 1.14109,0.8434 c 0.292519,-0.14584 0.57578,-0.309 0.848767,-0.48856 l -0.156097,-1.41023 c 0.400957,-0.32037 0.76557,-0.68396 1.086965,-1.08406 l 1.40978,0.15987 c 0.0883,-0.1334 0.17249,-0.26946 0.25281,-0.40771 z"
       transform="matrix(9.0510382,0,0,9.0510382,-756.66251,-940.56941)" /></g><g
     inkscape:label="C"
     inkscape:groupmode="layer"
     id="layer1"
     transform="translate(-24.999997,-24.999942)" /><g
     inkscape:groupmode="layer"
     id="layer8"
     inkscape:label="COG"
     transform="translate(-24.999997,-24.999942)"><path
       id="path2"
       style="fill:#000000;stroke-width:1.06156"
       d="M 99.988729,59.665092 A 40.06921,40.159729 0 0 0 59.919857,99.824915 40.06921,40.159729 0 0 0 99.988729,139.98474 40.06921,40.159729 0 0 0 140.05812,99.824915 40.06921,40.159729 0 0 0 99.988729,59.665092 Z m -0.0047,16.562813 A 24.000612,23.648766 0 0 1 123.98468,99.876591 24.000612,23.648766 0 0 1 99.984078,123.52528 24.000612,23.648766 0 0 1 75.983476,99.876591 24.000612,23.648766 0 0 1 99.984078,76.227905 Z" /></g><path
     id="path7-2"
     style="fill:#ff0000;stroke-width:0.902736"
     inkscape:transform-center-x="16.400925"
     inkscape:transform-center-y="-4.2635089e-06"
     d="M 139.31452,37.864954 74.997518,74.998605 138.87579,111.87852 c 0.75791,-1.30458 1.47777,-2.63076 2.15439,-3.9796 l -7.60522,-10.348723 c 1.69375,-4.325836 2.90521,-8.824997 3.61477,-13.4157 l 11.77447,-5.126819 c 0.18022,-2.951856 0.18353,-5.911764 0.0113,-8.865121 l -11.7599,-5.158856 c -0.69731,-4.592068 -1.8967,-9.09355 -3.57911,-13.423446 l 7.6352,-10.328579 c -0.56911,-1.140199 -1.18096,-2.257551 -1.80713,-3.366722 z" /></svg>
